<svg width="90" height="100" viewBox="0 0 90 100" fill="none" xmlns="http://www.w3.org/2000/svg">
<mask id="mask0_8549_3208" style="mask-type:luminance" maskUnits="userSpaceOnUse" x="0" y="0" width="90" height="100">
<path d="M90 0H0V100H90V0Z" fill="white"/>
</mask>
<g mask="url(#mask0_8549_3208)">
<path d="M8.60889 63.8919V67.8437C8.6092 68.6829 8.81378 69.5095 9.20523 70.2534C9.59668 70.9977 10.1634 71.6364 10.8571 72.1165L26.6396 56.453L22.2641 52.1105C22.147 51.9946 22.0081 51.9024 21.8551 51.8395C21.7022 51.7766 21.5383 51.7442 21.3727 51.7442C21.2072 51.7442 21.0433 51.7766 20.8904 51.8395C20.7375 51.9024 20.5985 51.9946 20.4814 52.1105L8.60889 63.8919Z" fill="#F7804A"/>
<path d="M21.3715 46.9833C21.9006 46.982 22.4247 47.0844 22.9135 47.2858C23.4023 47.4867 23.846 47.782 24.219 48.1542L29.6087 53.503L40.6746 42.5209C41.8224 41.3836 43.378 40.7449 44.9999 40.7449C46.6217 40.7449 48.1775 41.3836 49.3251 42.5209L64.7119 57.7911L69.4674 53.0715C70.2233 52.3231 71.2469 51.9029 72.3149 51.9029C73.3824 51.9029 74.4064 52.3231 75.1618 53.0715L81.3912 59.2586V32.1585C81.3912 31.2434 81.1484 30.3445 80.6869 29.552C80.2258 28.7596 79.5628 28.1015 78.7643 27.6439L47.6263 9.80227C46.8278 9.34465 45.9215 9.10373 44.9994 9.10373C44.0772 9.10373 43.1712 9.34465 42.3725 9.80227L11.2341 27.6439C10.4355 28.1015 9.77238 28.7596 9.31127 29.552C8.85016 30.3445 8.60736 31.2434 8.60718 32.1585V57.9938L18.5223 48.1538C18.8956 47.7811 19.3396 47.4858 19.8287 47.2854C20.3178 47.0844 20.8422 46.9815 21.3715 46.9833Z" fill="#F7804A"/>
<path d="M67.6824 60.7419L79.141 72.116C79.8349 71.636 80.4014 70.9968 80.7928 70.2529C81.1841 69.509 81.3883 68.6824 81.3888 67.8433V65.1554L73.2024 57.031C72.966 56.7964 72.6454 56.6647 72.3111 56.6647C71.9764 56.6647 71.6558 56.7964 71.4193 57.031L67.6824 60.7419Z" fill="#F7804A"/>
<path d="M64.7109 63.6896L61.7403 60.7419L46.3536 45.4722C45.9944 45.1162 45.508 44.9165 45.0005 44.9165C44.4931 44.9165 44.0064 45.1162 43.6474 45.4722L32.5815 56.4543L29.6104 59.4029L14.6086 74.2893L42.372 90.1982C43.1707 90.6557 44.0767 90.8967 44.9989 90.8967C45.921 90.8967 46.8273 90.6557 47.6258 90.1982L75.3892 74.2893L64.7109 63.6896Z" fill="#F7804A"/>
<path d="M45.0002 4.31142C46.0301 4.31114 47.0424 4.58012 47.9342 5.09127L82.7217 25.0239C83.614 25.5351 84.3545 26.2703 84.8694 27.1556C85.3844 28.041 85.6557 29.0453 85.6557 30.0676V69.9329C85.6557 70.955 85.3844 71.9592 84.8694 72.8446C84.3545 73.7297 83.614 74.465 82.7217 74.9761L47.9342 94.9087C47.0419 95.4198 46.0301 95.689 45 95.689C43.9699 95.689 42.9579 95.4198 42.0658 94.9087L7.27826 74.9761C6.38621 74.465 5.64543 73.7297 5.13043 72.8446C4.61542 71.9592 4.34429 70.955 4.34432 69.9329V30.0676C4.3443 29.0453 4.61542 28.041 5.13043 27.1556C5.64548 26.2703 6.38621 25.5351 7.27826 25.0239L42.0658 5.09127C42.958 4.58016 43.9701 4.31119 45.0002 4.31142ZM45.0002 0C43.2077 0.00069474 41.4468 0.468966 39.8941 1.35788L5.10611 21.2905C3.55558 22.1822 2.26797 23.4621 1.37194 25.0023C0.475918 26.5425 0.002847 28.2891 0 30.0676V69.9329C0.00293862 71.7115 0.476104 73.4582 1.3722 74.9981C2.26831 76.5385 3.55598 77.8181 5.10656 78.7099L39.8941 98.6426C41.4467 99.5321 43.2077 100 45.0002 100C46.7928 100 48.5538 99.5321 50.1063 98.6426L84.8939 78.7099C86.4447 77.8186 87.7327 76.5385 88.629 74.9985C89.5254 73.4582 89.9986 71.7115 90.0018 69.9329V30.0676C89.9991 28.2891 89.5258 26.5425 88.63 25.0023C87.7336 23.4621 86.446 22.1822 84.8957 21.2905L50.1081 1.35788C48.5556 0.469024 46.7947 0.000757964 45.002 0H45.0002Z" fill="#F7804A"/>
</g>
</svg>
