<svg width="16" height="16" viewBox="0 0 16 16" fill="none" xmlns="http://www.w3.org/2000/svg">
<path d="M2.73325 9.5H13.2666C13.71 9.5 13.891 9.5966 13.9774 9.68844C14.071 9.78794 14.1666 10.0002 14.1666 10.4867V13.18C14.1666 13.6665 14.071 13.8787 13.9774 13.9782C13.891 14.0701 13.71 14.1667 13.2666 14.1667H2.73325C2.28983 14.1667 2.10882 14.0701 2.02243 13.9782C1.92881 13.8787 1.83325 13.6665 1.83325 13.18V10.4867C1.83325 10.0002 1.92881 9.78794 2.02243 9.68844C2.10882 9.5966 2.28983 9.5 2.73325 9.5Z" fill="#E7E7E7" stroke="#E7E7E7"/>
<path d="M2.73325 1.83337H13.2666C13.71 1.83337 13.891 1.92997 13.9774 2.02181C14.071 2.12132 14.1666 2.33358 14.1666 2.82004V5.51337C14.1666 5.99983 14.071 6.2121 13.9774 6.3116C13.891 6.40344 13.71 6.50004 13.2666 6.50004H2.73325C2.28983 6.50004 2.10882 6.40344 2.02243 6.3116C1.92881 6.2121 1.83325 5.99983 1.83325 5.51337V2.82004C1.83325 2.33358 1.92881 2.12132 2.02243 2.02181C2.10882 1.92997 2.28983 1.83337 2.73325 1.83337Z" fill="#E7E7E7" stroke="#E7E7E7"/>
</svg>
