<svg width="24" height="24" viewBox="0 0 24 24" fill="none" xmlns="http://www.w3.org/2000/svg">
<path d="M16.96 6.17004C18.96 7.56004 20.34 9.77004 20.62 12.32L16.96 6.17004Z" fill="#E7E7E7"/>
<path d="M16.96 6.17004C18.96 7.56004 20.34 9.77004 20.62 12.32" stroke="#E7E7E7" stroke-width="1.5" stroke-linecap="round" stroke-linejoin="round"/>
<path d="M3.49023 12.37C3.75023 9.82997 5.11023 7.61997 7.09023 6.21997L3.49023 12.37Z" fill="#E7E7E7"/>
<path d="M3.49023 12.37C3.75023 9.82997 5.11023 7.61997 7.09023 6.21997" stroke="#E7E7E7" stroke-width="1.5" stroke-linecap="round" stroke-linejoin="round"/>
<path d="M8.18994 20.9399C9.34994 21.5299 10.6699 21.8599 12.0599 21.8599C13.3999 21.8599 14.6599 21.5599 15.7899 21.0099" stroke="#E7E7E7" stroke-width="1.5" stroke-linecap="round" stroke-linejoin="round"/>
<path d="M12.0598 7.70001C13.5951 7.70001 14.8398 6.45537 14.8398 4.92001C14.8398 3.38466 13.5951 2.14001 12.0598 2.14001C10.5244 2.14001 9.27979 3.38466 9.27979 4.92001C9.27979 6.45537 10.5244 7.70001 12.0598 7.70001Z" stroke="#E7E7E7" stroke-width="1.5" stroke-linecap="round" stroke-linejoin="round"/>
<path d="M4.8298 19.92C6.36516 19.92 7.60981 18.6753 7.60981 17.14C7.60981 15.6046 6.36516 14.36 4.8298 14.36C3.29445 14.36 2.0498 15.6046 2.0498 17.14C2.0498 18.6753 3.29445 19.92 4.8298 19.92Z" stroke="#E7E7E7" stroke-width="1.5" stroke-linecap="round" stroke-linejoin="round"/>
<path d="M19.1701 19.92C20.7055 19.92 21.9501 18.6753 21.9501 17.14C21.9501 15.6046 20.7055 14.36 19.1701 14.36C17.6348 14.36 16.3901 15.6046 16.3901 17.14C16.3901 18.6753 17.6348 19.92 19.1701 19.92Z" stroke="#E7E7E7" stroke-width="1.5" stroke-linecap="round" stroke-linejoin="round"/>
</svg>
