<svg width="16" height="16" viewBox="0 0 16 16" fill="none" xmlns="http://www.w3.org/2000/svg">
<path d="M12.8592 5.91461C12.2676 3.21528 9.99719 2 8.00282 2C8.00282 2 8.00282 2 7.99718 2C6.00845 2 3.73238 3.20944 3.14083 5.90876C2.48168 8.92359 4.26196 11.4769 5.87323 13.0836C6.47042 13.6796 7.70991 15 7.99718 15C8.28445 15 9.53521 13.6796 10.1268 13.0836C11.738 11.4769 13.5183 8.92944 12.8592 5.91461ZM8.00282 8.8418C7.02253 8.8418 6.22816 8.01798 6.22816 7.00135C6.22816 5.98472 7.02253 5.1609 8.00282 5.1609C8.9831 5.1609 9.77747 5.98472 9.77747 7.00135C9.77747 8.01798 8.9831 8.8418 8.00282 8.8418Z" fill="#F3F3F3"/>
</svg>
